<svg width="64" height="46" viewBox="0 0 64 46" fill="none" xmlns="http://www.w3.org/2000/svg">
<path d="M9.6 3.8001C9.6 2.0301 11.03 0.600098 12.8 0.600098H16C17.77 0.600098 19.2 2.0301 19.2 3.8001V19.8001V26.2001V42.2001C19.2 43.9701 17.77 45.4001 16 45.4001H12.8C11.03 45.4001 9.6 43.9701 9.6 42.2001V35.8001H6.4C4.63 35.8001 3.2 34.3701 3.2 32.6001V26.2001C1.43 26.2001 0 24.7701 0 23.0001C0 21.2301 1.43 19.8001 3.2 19.8001V13.4001C3.2 11.6301 4.63 10.2001 6.4 10.2001H9.6V3.8001ZM54.4 3.8001V10.2001H57.6C59.37 10.2001 60.8 11.6301 60.8 13.4001V19.8001C62.57 19.8001 64 21.2301 64 23.0001C64 24.7701 62.57 26.2001 60.8 26.2001V32.6001C60.8 34.3701 59.37 35.8001 57.6 35.8001H54.4V42.2001C54.4 43.9701 52.97 45.4001 51.2 45.4001H48C46.23 45.4001 44.8 43.9701 44.8 42.2001V26.2001V19.8001V3.8001C44.8 2.0301 46.23 0.600098 48 0.600098H51.2C52.97 0.600098 54.4 2.0301 54.4 3.8001ZM41.6 19.8001V26.2001H22.4V19.8001H41.6Z" fill="#7A9D8C"/>
</svg>
