<svg width="78" height="64" viewBox="0 0 78 64" fill="none" xmlns="http://www.w3.org/2000/svg">
<path d="M19.9915 0C22.1132 0 24.1481 0.842855 25.6484 2.34315C27.1486 3.84344 27.9915 5.87827 27.9915 8C27.9915 10.1217 27.1486 12.1566 25.6484 13.6569C24.1481 15.1571 22.1132 16 19.9915 16C17.8698 16 15.8349 15.1571 14.3346 13.6569C12.8344 12.1566 11.9915 10.1217 11.9915 8C11.9915 5.87827 12.8344 3.84344 14.3346 2.34315C15.8349 0.842855 17.8698 0 19.9915 0ZM10.9915 60V50H8.7665C7.404 50 6.4415 48.6625 6.8665 47.3625L10.754 35.6875L7.179 40.4125C5.8415 42.175 3.329 42.5125 1.579 41.1875C-0.170997 39.8625 -0.520997 37.35 0.804003 35.5875L8.1665 25.875C10.9665 22.175 15.354 20 19.9915 20C24.629 20 29.0165 22.175 31.8165 25.875L39.179 35.5875C40.5165 37.35 40.1665 39.8625 38.404 41.1875C36.6415 42.5125 34.129 42.175 32.804 40.4125L29.229 35.6875L33.1165 47.3625C33.554 48.6625 32.579 50 31.2165 50H28.9915V60C28.9915 62.2125 27.204 64 24.9915 64C22.779 64 20.9915 62.2125 20.9915 60V50H18.9915V60C18.9915 62.2125 17.204 64 14.9915 64C12.779 64 10.9915 62.2125 10.9915 60ZM59.9915 0C62.1132 0 64.1481 0.842855 65.6484 2.34315C67.1486 3.84344 67.9915 5.87827 67.9915 8C67.9915 10.1217 67.1486 12.1566 65.6484 13.6569C64.1481 15.1571 62.1132 16 59.9915 16C57.8698 16 55.8349 15.1571 54.3347 13.6569C52.8344 12.1566 51.9915 10.1217 51.9915 8C51.9915 5.87827 52.8344 3.84344 54.3347 2.34315C55.8349 0.842855 57.8698 0 59.9915 0ZM58.9915 48V60C58.9915 62.2125 57.204 64 54.9915 64C52.779 64 50.9915 62.2125 50.9915 60V37.5625L49.379 40.125C48.204 42 45.729 42.55 43.8665 41.375C42.004 40.2 41.4415 37.725 42.6165 35.8625L49.079 25.6C51.279 22.1125 55.1165 19.9875 59.229 19.9875H60.7665C64.8915 19.9875 68.729 22.1 70.9165 25.6L77.379 35.875C78.554 37.75 77.9915 40.2125 76.129 41.3875C74.2665 42.5625 71.7915 42 70.6165 40.1375L68.9915 37.5625V60C68.9915 62.2125 67.204 64 64.9915 64C62.779 64 60.9915 62.2125 60.9915 60V48H58.9915Z" fill="#7A9D8C"/>
</svg>
