<svg width="64" height="64" viewBox="0 0 64 64" fill="none" xmlns="http://www.w3.org/2000/svg">
<path d="M64 12C64 18.275 56.6125 27.6375 53.425 31.375C52.95 31.925 52.25 32.1375 51.6125 32H40C37.7875 32 36 33.7875 36 36C36 38.2125 37.7875 40 40 40H52C58.625 40 64 45.375 64 52C64 58.625 58.625 64 52 64H17.45C18.5375 62.7625 19.8625 61.175 21.2 59.4C21.9875 58.35 22.8 57.2 23.575 56H52C54.2125 56 56 54.2125 56 52C56 49.7875 54.2125 48 52 48H40C33.375 48 28 42.625 28 36C28 29.375 33.375 24 40 24H44.975C42.35 20.0625 40 15.5375 40 12C40 5.375 45.375 0 52 0C58.625 0 64 5.375 64 12ZM14.6375 61.1375C14.1625 61.675 13.7375 62.15 13.375 62.55L13.15 62.8L13.125 62.775C12.375 63.35 11.3 63.275 10.625 62.55C7.475 59.125 0 50.3125 0 44C0 37.375 5.375 32 12 32C18.625 32 24 37.375 24 44C24 47.75 21.3625 52.375 18.5625 56.2375C17.225 58.075 15.85 59.7375 14.7125 61.05L14.6375 61.1375ZM16 44C16 42.9391 15.5786 41.9217 14.8284 41.1716C14.0783 40.4214 13.0609 40 12 40C10.9391 40 9.92172 40.4214 9.17157 41.1716C8.42143 41.9217 8 42.9391 8 44C8 45.0609 8.42143 46.0783 9.17157 46.8284C9.92172 47.5786 10.9391 48 12 48C13.0609 48 14.0783 47.5786 14.8284 46.8284C15.5786 46.0783 16 45.0609 16 44ZM52 16C53.0609 16 54.0783 15.5786 54.8284 14.8284C55.5786 14.0783 56 13.0609 56 12C56 10.9391 55.5786 9.92172 54.8284 9.17157C54.0783 8.42143 53.0609 8 52 8C50.9391 8 49.9217 8.42143 49.1716 9.17157C48.4214 9.92172 48 10.9391 48 12C48 13.0609 48.4214 14.0783 49.1716 14.8284C49.9217 15.5786 50.9391 16 52 16Z" fill="#7A9D8C"/>
</svg>
