<svg width="72" height="56" viewBox="0 0 72 56" fill="none" xmlns="http://www.w3.org/2000/svg">
<path d="M22.8875 25.4125C27.1 28 30.75 31.425 33.6125 35.475C34.4875 36.7125 35.2875 38.0125 36 39.35C36.7125 38 37.5125 36.7125 38.3875 35.475C41.25 31.425 44.9 28 49.1125 25.4125C54.7 21.975 61.2625 20 68.25 20H69.4875C70.875 20 72 21.125 72 22.5125C72 41.0125 57.0125 56 38.5125 56H36H33.4875C14.9875 56 0 41.0125 0 22.5125C0 21.125 1.125 20 2.5125 20H3.75C10.7375 20 17.3 21.975 22.8875 25.4125ZM37.6875 0.7C39.65 2.8125 45.325 9.675 48.2375 21.275C43.4875 23.975 39.3125 27.625 36 31.975C32.6875 27.625 28.5125 23.9875 23.7625 21.275C26.6625 9.675 32.3375 2.8125 34.3125 0.7C34.75 0.2375 35.3625 0 36 0C36.6375 0 37.25 0.2375 37.6875 0.7Z" fill="#7A9D8C"/>
</svg>
