<svg width="56" height="64" viewBox="0 0 56 64" fill="none" xmlns="http://www.w3.org/2000/svg">
<path d="M26.325 0.7375L7.75 21.175C7.2625 21.7 7 22.4 7 23.1125C7 24.7125 8.2875 26 9.8875 26H13L3.825 35.175C3.3 35.7 3 36.425 3 37.175C3 38.7375 4.2625 40 5.825 40H10L0.675 51.1875C0.2375 51.7125 0 52.375 0 53.0625C0 54.6875 1.3125 56 2.9375 56H24V60C24 62.2125 25.7875 64 28 64C30.2125 64 32 62.2125 32 60V56H53.0625C54.6875 56 56 54.6875 56 53.0625C56 52.375 55.7625 51.7125 55.325 51.1875L46 40H50.175C51.7375 40 53 38.7375 53 37.175C53 36.425 52.7 35.7 52.175 35.175L43 26H46.1125C47.7 26 49 24.7125 49 23.1125C49 22.4 48.7375 21.7 48.25 21.175L29.675 0.7375C29.25 0.2625 28.6375 0 28 0C27.3625 0 26.75 0.2625 26.325 0.7375Z" fill="#7A9D8C"/>
</svg>
