<svg width="64" height="56" viewBox="0 0 64 56" fill="none" xmlns="http://www.w3.org/2000/svg">
<path d="M8 12.4875C8 10.0125 10.0125 8 12.4875 8C13.675 8 14.8125 8.475 15.6625 9.3125L17.6875 11.3375C15.0625 16.2 15.5125 22.275 19.05 26.7125L18.875 26.875C17.7 28.05 17.7 29.95 18.875 31.1125C20.05 32.275 21.95 32.2875 23.1125 31.1125L43.125 11.125C44.3 9.95 44.3 8.05 43.125 6.8875C41.95 5.725 40.05 5.7125 38.8875 6.8875L38.725 7.05C34.2875 3.5125 28.2 3.0625 23.35 5.6875L21.3125 3.6625C18.975 1.3125 15.8 0 12.4875 0C5.5875 0 0 5.5875 0 12.4875V52C0 54.2125 1.7875 56 4 56C6.2125 56 8 54.2125 8 52V12.4875ZM32 40C33.0609 40 34.0783 39.5786 34.8284 38.8284C35.5786 38.0783 36 37.0609 36 36C36 34.9391 35.5786 33.9217 34.8284 33.1716C34.0783 32.4214 33.0609 32 32 32C30.9391 32 29.9217 32.4214 29.1716 33.1716C28.4214 33.9217 28 34.9391 28 36C28 37.0609 28.4214 38.0783 29.1716 38.8284C29.9217 39.5786 30.9391 40 32 40ZM40 48C40 46.9391 39.5786 45.9217 38.8284 45.1716C38.0783 44.4214 37.0609 44 36 44C34.9391 44 33.9217 44.4214 33.1716 45.1716C32.4214 45.9217 32 46.9391 32 48C32 49.0609 32.4214 50.0783 33.1716 50.8284C33.9217 51.5786 34.9391 52 36 52C37.0609 52 38.0783 51.5786 38.8284 50.8284C39.5786 50.0783 40 49.0609 40 48ZM40 32C41.0609 32 42.0783 31.5786 42.8284 30.8284C43.5786 30.0783 44 29.0609 44 28C44 26.9391 43.5786 25.9217 42.8284 25.1716C42.0783 24.4214 41.0609 24 40 24C38.9391 24 37.9217 24.4214 37.1716 25.1716C36.4214 25.9217 36 26.9391 36 28C36 29.0609 36.4214 30.0783 37.1716 30.8284C37.9217 31.5786 38.9391 32 40 32ZM48 40C48 38.9391 47.5786 37.9217 46.8284 37.1716C46.0783 36.4214 45.0609 36 44 36C42.9391 36 41.9217 36.4214 41.1716 37.1716C40.4214 37.9217 40 38.9391 40 40C40 41.0609 40.4214 42.0783 41.1716 42.8284C41.9217 43.5786 42.9391 44 44 44C45.0609 44 46.0783 43.5786 46.8284 42.8284C47.5786 42.0783 48 41.0609 48 40ZM48 24C49.0609 24 50.0783 23.5786 50.8284 22.8284C51.5786 22.0783 52 21.0609 52 20C52 18.9391 51.5786 17.9217 50.8284 17.1716C50.0783 16.4214 49.0609 16 48 16C46.9391 16 45.9217 16.4214 45.1716 17.1716C44.4214 17.9217 44 18.9391 44 20C44 21.0609 44.4214 22.0783 45.1716 22.8284C45.9217 23.5786 46.9391 24 48 24ZM56 32C56 30.9391 55.5786 29.9217 54.8284 29.1716C54.0783 28.4214 53.0609 28 52 28C50.9391 28 49.9217 28.4214 49.1716 29.1716C48.4214 29.9217 48 30.9391 48 32C48 33.0609 48.4214 34.0783 49.1716 34.8284C49.9217 35.5786 50.9391 36 52 36C53.0609 36 54.0783 35.5786 54.8284 34.8284C55.5786 34.0783 56 33.0609 56 32ZM60 28C61.0609 28 62.0783 27.5786 62.8284 26.8284C63.5786 26.0783 64 25.0609 64 24C64 22.9391 63.5786 21.9217 62.8284 21.1716C62.0783 20.4214 61.0609 20 60 20C58.9391 20 57.9217 20.4214 57.1716 21.1716C56.4214 21.9217 56 22.9391 56 24C56 25.0609 56.4214 26.0783 57.1716 26.8284C57.9217 27.5786 58.9391 28 60 28Z" fill="#7A9D8C"/>
</svg>
