<svg width="64" height="64" viewBox="0 0 64 64" fill="none" xmlns="http://www.w3.org/2000/svg">
<path d="M32 0C48.8 0 60 4.4 60 10V12V16C62.2125 16 64 17.7875 64 20V28C64 30.2125 62.2125 32 60 32V52C60 54.2125 58.2125 56 56 56V60C56 62.2125 54.2125 64 52 64H48C45.7875 64 44 62.2125 44 60V56H20V60C20 62.2125 18.2125 64 16 64H12C9.7875 64 8 62.2125 8 60V56C5.7875 56 4 54.2125 4 52V32C1.7875 32 0 30.2125 0 28V20C0 17.7875 1.7875 16 4 16V12V10C4 4.4 15.2 0 32 0ZM12 20V32C12 34.2125 13.7875 36 16 36H30V16H16C13.7875 16 12 17.7875 12 20ZM34 36H48C50.2125 36 52 34.2125 52 32V20C52 17.7875 50.2125 16 48 16H34V36ZM14 50C15.0609 50 16.0783 49.5786 16.8284 48.8284C17.5786 48.0783 18 47.0609 18 46C18 44.9391 17.5786 43.9217 16.8284 43.1716C16.0783 42.4214 15.0609 42 14 42C12.9391 42 11.9217 42.4214 11.1716 43.1716C10.4214 43.9217 10 44.9391 10 46C10 47.0609 10.4214 48.0783 11.1716 48.8284C11.9217 49.5786 12.9391 50 14 50ZM50 50C51.0609 50 52.0783 49.5786 52.8284 48.8284C53.5786 48.0783 54 47.0609 54 46C54 44.9391 53.5786 43.9217 52.8284 43.1716C52.0783 42.4214 51.0609 42 50 42C48.9391 42 47.9217 42.4214 47.1716 43.1716C46.4214 43.9217 46 44.9391 46 46C46 47.0609 46.4214 48.0783 47.1716 48.8284C47.9217 49.5786 48.9391 50 50 50ZM44 10C44 8.9 43.1 8 42 8H22C20.9 8 20 8.9 20 10C20 11.1 20.9 12 22 12H42C43.1 12 44 11.1 44 10Z" fill="#7A9D8C"/>
</svg>
